{
	"asset":{
		"generator":"Khronos glTF Blender I/O v4.0.44",
		"version":"2.0"
	},
	"extensionsUsed":[
		"KHR_materials_specular",
		"KHR_materials_ior"
	],
	"scene":0,
	"scenes":[
		{
			"name":"Scene",
			"nodes":[
				0,
				1,
				2,
				3,
				4,
				5,
				6,
				7,
				8
			]
		}
	],
	"nodes":[
		{
			"mesh":0,
			"name":"Box002",
			"scale":[
				0.007935593836009502,
				0.00795415323227644,
				0.006958325393497944
			],
			"translation":[
				-0.020721249282360077,
				0.10035467147827148,
				-0.06385516375303268
			]
		},
		{
			"mesh":1,
			"name":"Box005",
			"scale":[
				0.007935593836009502,
				0.009999999776482582,
				0.008463452570140362
			],
			"translation":[
				0.2983532249927521,
				0.2137003093957901,
				-0.2664928138256073
			]
		},
		{
			"mesh":2,
			"name":"Box006",
			"rotation":[
				-0.09635843336582184,
				0,
				0,
				0.9953467845916748
			],
			"scale":[
				0.007953000254929066,
				0.007345283403992653,
				0.007891043089330196
			],
			"translation":[
				0.3014488220214844,
				0.3540279269218445,
				-0.1727352738380432
			]
		},
		{
			"mesh":3,
			"name":"Box010",
			"scale":[
				0.006771903019398451,
				0.007783837150782347,
				0.006877658423036337
			],
			"translation":[
				0.6604165434837341,
				0.1032731831073761,
				-0.056448258459568024
			]
		},
		{
			"mesh":4,
			"name":"Box012",
			"scale":[
				0.007953000254929066,
				0.009999999776482582,
				0.007722650188952684
			],
			"translation":[
				0.30258041620254517,
				0.20756852626800537,
				-0.015091829001903534
			]
		},
		{
			"mesh":5,
			"name":"Box017",
			"scale":[
				0.007953000254929066,
				0.009999999776482582,
				0.007722650188952684
			],
			"translation":[
				-0.3131769895553589,
				0.20756852626800537,
				-0.015091829001903534
			]
		},
		{
			"mesh":6,
			"name":"Box018",
			"scale":[
				0.006771903019398451,
				0.007783837150782347,
				0.006877658423036337
			],
			"translation":[
				-0.6658958196640015,
				0.1032731831073761,
				-0.056448258459568024
			]
		},
		{
			"mesh":7,
			"name":"Box019",
			"rotation":[
				-0.09635843336582184,
				0,
				0,
				0.9953467845916748
			],
			"scale":[
				0.007751177996397018,
				0.007345283403992653,
				0.007891043089330196
			],
			"translation":[
				-0.3115009367465973,
				0.3512333929538727,
				-0.17218905687332153
			]
		},
		{
			"mesh":8,
			"name":"Box020",
			"rotation":[
				-0.1574448198080063,
				0.9201163053512573,
				-0.06048322841525078,
				0.3534669578075409
			],
			"scale":[
				0.0054723662324249744,
				0.010114537551999092,
				0.006036391481757164
			],
			"translation":[
				0.6195234656333923,
				-0.001780886435881257,
				0.20585420727729797
			]
		}
	],
	"materials":[
		{
			"doubleSided":true,
			"emissiveTexture":{
				"index":0
			},
			"extensions":{
				"KHR_materials_specular":{
					"specularColorFactor":[
						2.0,
						2.0,
						2.0
					]
				},
				"KHR_materials_ior":{
					"ior":1.4500000476837158
				}
			},
			"name":"Grey cloth",
			"normalTexture":{
				"index":1
			},
			"pbrMetallicRoughness":{
				"baseColorTexture":{
					"index":2
				},
				"metallicRoughnessTexture":{
					"index":3
				}
			}
		},
		{
			"doubleSided":true,
			"emissiveTexture":{
				"index":4
			},
			"extensions":{
				"KHR_materials_specular":{
					"specularColorFactor":[
						2.0,
						2.0,
						2.0
					]
				},
				"KHR_materials_ior":{
					"ior":1.4500000476837158
				}
			},
			"name":"Reflecting wood",
			"pbrMetallicRoughness":{
				"baseColorTexture":{
					"index":5
				},
				"metallicRoughnessTexture":{
					"index":6
				}
			}
		}
	],
	"meshes":[
		{
			"name":"\u7db2\u683c",
			"primitives":[
				{
					"attributes":{
						"POSITION":0,
						"NORMAL":1,
						"TEXCOORD_0":2
					},
					"indices":3,
					"material":0
				}
			]
		},
		{
			"name":"\u7db2\u683c.001",
			"primitives":[
				{
					"attributes":{
						"POSITION":4,
						"NORMAL":5,
						"TEXCOORD_0":6
					},
					"indices":7,
					"material":0
				}
			]
		},
		{
			"name":"\u7db2\u683c.002",
			"primitives":[
				{
					"attributes":{
						"POSITION":8,
						"NORMAL":9,
						"TEXCOORD_0":10
					},
					"indices":11,
					"material":0
				}
			]
		},
		{
			"name":"\u7db2\u683c.003",
			"primitives":[
				{
					"attributes":{
						"POSITION":12,
						"NORMAL":13,
						"TEXCOORD_0":14
					},
					"indices":15,
					"material":0
				}
			]
		},
		{
			"name":"\u7db2\u683c.004",
			"primitives":[
				{
					"attributes":{
						"POSITION":16,
						"NORMAL":17,
						"TEXCOORD_0":18
					},
					"indices":19,
					"material":0
				}
			]
		},
		{
			"name":"\u7db2\u683c.005",
			"primitives":[
				{
					"attributes":{
						"POSITION":20,
						"NORMAL":21,
						"TEXCOORD_0":22
					},
					"indices":23,
					"material":0
				}
			]
		},
		{
			"name":"\u7db2\u683c.006",
			"primitives":[
				{
					"attributes":{
						"POSITION":24,
						"NORMAL":25,
						"TEXCOORD_0":26
					},
					"indices":27,
					"material":0
				}
			]
		},
		{
			"name":"\u7db2\u683c.007",
			"primitives":[
				{
					"attributes":{
						"POSITION":28,
						"NORMAL":29,
						"TEXCOORD_0":30
					},
					"indices":31,
					"material":0
				}
			]
		},
		{
			"name":"\u7db2\u683c.008",
			"primitives":[
				{
					"attributes":{
						"POSITION":32,
						"NORMAL":33,
						"TEXCOORD_0":34
					},
					"indices":35,
					"material":1
				}
			]
		}
	],
	"textures":[
		{
			"sampler":0,
			"source":0
		},
		{
			"sampler":0,
			"source":1
		},
		{
			"sampler":0,
			"source":2
		},
		{
			"sampler":0,
			"source":3
		},
		{
			"sampler":0,
			"source":4
		},
		{
			"sampler":0,
			"source":5
		},
		{
			"sampler":0,
			"source":6
		}
	],
	"images":[
		{
			"mimeType":"image/png",
			"name":"sofa_Grey cloth_Emissive",
			"uri":"sofa_Grey%20cloth_Emissive.png"
		},
		{
			"mimeType":"image/png",
			"name":"sofa_Grey cloth_Normal",
			"uri":"sofa_Grey%20cloth_Normal.png"
		},
		{
			"mimeType":"image/png",
			"name":"sofa_Grey cloth_BaseColor",
			"uri":"sofa_Grey%20cloth_BaseColor.png"
		},
		{
			"mimeType":"image/png",
			"name":"sofa_Grey cloth_Metallic.png-sofa_Grey cloth_Roughness.png",
			"uri":"sofa_Grey%20cloth_Metallic_png-sofa_Grey%20cloth_Roughness_png.png"
		},
		{
			"mimeType":"image/png",
			"name":"sofa_Reflecting wood_Emissive",
			"uri":"sofa_Reflecting%20wood_Emissive.png"
		},
		{
			"mimeType":"image/png",
			"name":"sofa_Reflecting wood_BaseColor",
			"uri":"sofa_Reflecting%20wood_BaseColor.png"
		},
		{
			"mimeType":"image/png",
			"name":"sofa_Reflecting wood_Metallic-sofa_Reflecting wood_Roughness",
			"uri":"sofa_Reflecting%20wood_Metallic-sofa_Reflecting%20wood_Roughness.png"
		}
	],
	"accessors":[
		{
			"bufferView":0,
			"componentType":5126,
			"count":735,
			"max":[
				79.51223754882812,
				15.000001907348633,
				38.48809051513672
			],
			"min":[
				-75.49263000488281,
				2.030972154898336e-06,
				-38.48810958862305
			],
			"type":"VEC3"
		},
		{
			"bufferView":1,
			"componentType":5126,
			"count":735,
			"type":"VEC3"
		},
		{
			"bufferView":2,
			"componentType":5126,
			"count":735,
			"type":"VEC2"
		},
		{
			"bufferView":3,
			"componentType":5123,
			"count":3600,
			"type":"SCALAR"
		},
		{
			"bufferView":4,
			"componentType":5126,
			"count":2838,
			"max":[
				39.0587158203125,
				38.18525695800781,
				2.829646110534668
			],
			"min":[
				-116.05297088623047,
				0,
				-8.279123306274414
			],
			"type":"VEC3"
		},
		{
			"bufferView":5,
			"componentType":5126,
			"count":2838,
			"type":"VEC3"
		},
		{
			"bufferView":6,
			"componentType":5126,
			"count":2838,
			"type":"VEC2"
		},
		{
			"bufferView":7,
			"componentType":5123,
			"count":13056,
			"type":"SCALAR"
		},
		{
			"bufferView":8,
			"componentType":5126,
			"count":7724,
			"max":[
				38.924076080322266,
				44.03262710571289,
				7.816993236541748
			],
			"min":[
				-39.19158935546875,
				0.03986567631363869,
				-7.001230716705322
			],
			"type":"VEC3"
		},
		{
			"bufferView":9,
			"componentType":5126,
			"count":7724,
			"type":"VEC3"
		},
		{
			"bufferView":10,
			"componentType":5126,
			"count":7724,
			"type":"VEC2"
		},
		{
			"bufferView":11,
			"componentType":5123,
			"count":38340,
			"type":"SCALAR"
		},
		{
			"bufferView":12,
			"componentType":5126,
			"count":4406,
			"max":[
				7.541257858276367,
				44.834537506103516,
				39.078468322753906
			],
			"min":[
				-7.413438320159912,
				0.18915404379367828,
				-38.933040618896484
			],
			"type":"VEC3"
		},
		{
			"bufferView":13,
			"componentType":5126,
			"count":4406,
			"type":"VEC3"
		},
		{
			"bufferView":14,
			"componentType":5126,
			"count":4406,
			"type":"VEC2"
		},
		{
			"bufferView":15,
			"componentType":5123,
			"count":20448,
			"type":"SCALAR"
		},
		{
			"bufferView":16,
			"componentType":5126,
			"count":1866,
			"max":[
				38.9735107421875,
				14.913434982299805,
				32.18524169921875
			],
			"min":[
				-38.95622253417969,
				-0.1559433937072754,
				-31.775054931640625
			],
			"type":"VEC3"
		},
		{
			"bufferView":17,
			"componentType":5126,
			"count":1866,
			"type":"VEC3"
		},
		{
			"bufferView":18,
			"componentType":5126,
			"count":1866,
			"type":"VEC2"
		},
		{
			"bufferView":19,
			"componentType":5123,
			"count":9024,
			"type":"SCALAR"
		},
		{
			"bufferView":20,
			"componentType":5126,
			"count":1887,
			"max":[
				38.9735107421875,
				14.800660133361816,
				31.775053024291992
			],
			"min":[
				-38.95622253417969,
				-0.049149420112371445,
				-31.775068283081055
			],
			"type":"VEC3"
		},
		{
			"bufferView":21,
			"componentType":5126,
			"count":1887,
			"type":"VEC3"
		},
		{
			"bufferView":22,
			"componentType":5126,
			"count":1887,
			"type":"VEC2"
		},
		{
			"bufferView":23,
			"componentType":5123,
			"count":9024,
			"type":"SCALAR"
		},
		{
			"bufferView":24,
			"componentType":5126,
			"count":4403,
			"max":[
				7.543253421783447,
				45.01464080810547,
				39.07847595214844
			],
			"min":[
				-7.4154815673828125,
				0.1891993135213852,
				-38.93304443359375
			],
			"type":"VEC3"
		},
		{
			"bufferView":25,
			"componentType":5126,
			"count":4403,
			"type":"VEC3"
		},
		{
			"bufferView":26,
			"componentType":5126,
			"count":4403,
			"type":"VEC2"
		},
		{
			"bufferView":27,
			"componentType":5123,
			"count":20448,
			"type":"SCALAR"
		},
		{
			"bufferView":28,
			"componentType":5126,
			"count":7709,
			"max":[
				38.924068450927734,
				44.56693649291992,
				7.874431610107422
			],
			"min":[
				-39.191585540771484,
				-1.4103955030441284,
				-6.989901065826416
			],
			"type":"VEC3"
		},
		{
			"bufferView":29,
			"componentType":5126,
			"count":7709,
			"type":"VEC3"
		},
		{
			"bufferView":30,
			"componentType":5126,
			"count":7709,
			"type":"VEC2"
		},
		{
			"bufferView":31,
			"componentType":5123,
			"count":38340,
			"type":"SCALAR"
		},
		{
			"bufferView":32,
			"componentType":5126,
			"count":6389,
			"max":[
				220.07627868652344,
				52.64997863769531,
				66.64991760253906
			],
			"min":[
				-3.7344398498535156,
				0.002869225572794676,
				-137.30311584472656
			],
			"type":"VEC3"
		},
		{
			"bufferView":33,
			"componentType":5126,
			"count":6389,
			"type":"VEC3"
		},
		{
			"bufferView":34,
			"componentType":5126,
			"count":6389,
			"type":"VEC2"
		},
		{
			"bufferView":35,
			"componentType":5123,
			"count":30912,
			"type":"SCALAR"
		}
	],
	"bufferViews":[
		{
			"buffer":0,
			"byteLength":8820,
			"byteOffset":0,
			"target":34962
		},
		{
			"buffer":0,
			"byteLength":8820,
			"byteOffset":8820,
			"target":34962
		},
		{
			"buffer":0,
			"byteLength":5880,
			"byteOffset":17640,
			"target":34962
		},
		{
			"buffer":0,
			"byteLength":7200,
			"byteOffset":23520,
			"target":34963
		},
		{
			"buffer":0,
			"byteLength":34056,
			"byteOffset":30720,
			"target":34962
		},
		{
			"buffer":0,
			"byteLength":34056,
			"byteOffset":64776,
			"target":34962
		},
		{
			"buffer":0,
			"byteLength":22704,
			"byteOffset":98832,
			"target":34962
		},
		{
			"buffer":0,
			"byteLength":26112,
			"byteOffset":121536,
			"target":34963
		},
		{
			"buffer":0,
			"byteLength":92688,
			"byteOffset":147648,
			"target":34962
		},
		{
			"buffer":0,
			"byteLength":92688,
			"byteOffset":240336,
			"target":34962
		},
		{
			"buffer":0,
			"byteLength":61792,
			"byteOffset":333024,
			"target":34962
		},
		{
			"buffer":0,
			"byteLength":76680,
			"byteOffset":394816,
			"target":34963
		},
		{
			"buffer":0,
			"byteLength":52872,
			"byteOffset":471496,
			"target":34962
		},
		{
			"buffer":0,
			"byteLength":52872,
			"byteOffset":524368,
			"target":34962
		},
		{
			"buffer":0,
			"byteLength":35248,
			"byteOffset":577240,
			"target":34962
		},
		{
			"buffer":0,
			"byteLength":40896,
			"byteOffset":612488,
			"target":34963
		},
		{
			"buffer":0,
			"byteLength":22392,
			"byteOffset":653384,
			"target":34962
		},
		{
			"buffer":0,
			"byteLength":22392,
			"byteOffset":675776,
			"target":34962
		},
		{
			"buffer":0,
			"byteLength":14928,
			"byteOffset":698168,
			"target":34962
		},
		{
			"buffer":0,
			"byteLength":18048,
			"byteOffset":713096,
			"target":34963
		},
		{
			"buffer":0,
			"byteLength":22644,
			"byteOffset":731144,
			"target":34962
		},
		{
			"buffer":0,
			"byteLength":22644,
			"byteOffset":753788,
			"target":34962
		},
		{
			"buffer":0,
			"byteLength":15096,
			"byteOffset":776432,
			"target":34962
		},
		{
			"buffer":0,
			"byteLength":18048,
			"byteOffset":791528,
			"target":34963
		},
		{
			"buffer":0,
			"byteLength":52836,
			"byteOffset":809576,
			"target":34962
		},
		{
			"buffer":0,
			"byteLength":52836,
			"byteOffset":862412,
			"target":34962
		},
		{
			"buffer":0,
			"byteLength":35224,
			"byteOffset":915248,
			"target":34962
		},
		{
			"buffer":0,
			"byteLength":40896,
			"byteOffset":950472,
			"target":34963
		},
		{
			"buffer":0,
			"byteLength":92508,
			"byteOffset":991368,
			"target":34962
		},
		{
			"buffer":0,
			"byteLength":92508,
			"byteOffset":1083876,
			"target":34962
		},
		{
			"buffer":0,
			"byteLength":61672,
			"byteOffset":1176384,
			"target":34962
		},
		{
			"buffer":0,
			"byteLength":76680,
			"byteOffset":1238056,
			"target":34963
		},
		{
			"buffer":0,
			"byteLength":76668,
			"byteOffset":1314736,
			"target":34962
		},
		{
			"buffer":0,
			"byteLength":76668,
			"byteOffset":1391404,
			"target":34962
		},
		{
			"buffer":0,
			"byteLength":51112,
			"byteOffset":1468072,
			"target":34962
		},
		{
			"buffer":0,
			"byteLength":61824,
			"byteOffset":1519184,
			"target":34963
		}
	],
	"samplers":[
		{
			"magFilter":9729,
			"minFilter":9987
		}
	],
	"buffers":[
		{
			"byteLength":1581008,
			"uri":"untitled.bin"
		}
	]
}
